<?xml version="1.0" standalone="no"?>
<!DOCTYPE svg PUBLIC "-//W3C//DTD SVG 20010904//EN"
 "http://www.w3.org/TR/2001/REC-SVG-20010904/DTD/svg10.dtd">
<svg version="1.0" xmlns="http://www.w3.org/2000/svg"
 width="551.000000pt" height="551.000000pt" viewBox="0 0 551.000000 551.000000"
 preserveAspectRatio="xMidYMid meet">
<metadata>
Created by potrace 1.14, written by Peter Selinger 2001-2017
</metadata>
<g transform="translate(0.000000,551.000000) scale(0.100000,-0.100000)"
fill="#000000" stroke="none">
<path d="M2890 5458 c-84 -8 -128 -28 -183 -80 -67 -64 -90 -117 -95 -218 l-4
-86 -97 0 c-82 1 -110 -4 -196 -33 -159 -53 -173 -57 -520 -167 -322 -103
-533 -170 -980 -312 -121 -39 -251 -80 -290 -92 -38 -12 -79 -25 -90 -30 -11
-4 -72 -24 -136 -44 -167 -51 -240 -114 -274 -230 -24 -84 -19 -113 65 -378
34 -106 80 -249 102 -318 21 -69 45 -143 53 -165 7 -22 24 -76 38 -120 14 -44
57 -179 95 -300 39 -121 100 -314 137 -430 70 -220 96 -301 218 -685 41 -129
92 -287 112 -350 20 -63 67 -212 105 -330 37 -118 114 -359 170 -534 109 -345
121 -373 171 -426 56 -59 121 -85 214 -85 73 0 103 7 350 87 317 102 453 145
750 239 121 39 317 101 435 139 118 38 323 103 455 144 132 42 265 85 296 97
68 25 157 105 173 156 6 19 22 20 649 20 628 1 643 1 698 22 62 24 138 90 163
142 8 19 20 54 25 78 13 60 13 4002 0 4062 -21 95 -117 194 -214 220 -45 13
-2280 19 -2395 7z m2400 -100 c47 -20 89 -64 112 -115 18 -40 18 -112 18
-2048 0 -1939 0 -2008 -18 -2048 -23 -51 -60 -89 -110 -113 -35 -17 -101 -18
-1232 -18 l-1195 -1 -47 23 c-54 27 -96 77 -112 136 -9 31 -12 529 -11 2036 1
2203 -4 2030 63 2100 67 70 -11 66 1309 65 1054 -1 1192 -3 1223 -17z m-2710
-382 c24 -11 25 -14 28 -136 l2 -125 -21 34 c-11 19 -26 39 -32 45 -18 17 -68
36 -102 37 -25 2 -310 -82 -380 -111 -11 -4 -139 -45 -285 -91 -146 -45 -277
-89 -292 -96 -33 -16 -38 -57 -10 -72 23 -12 39 -8 372 99 603 194 588 190
616 180 32 -12 39 -27 85 -170 l44 -135 3 -517 c1 -285 0 -518 -3 -518 -2 0
-28 15 -57 34 -70 44 -146 78 -244 109 -107 34 -174 42 -329 41 -105 -1 -149
-6 -226 -27 -466 -123 -785 -542 -774 -1014 2 -54 6 -116 10 -138 56 -344 270
-628 587 -779 83 -40 259 -89 283 -80 22 9 31 53 14 68 -8 7 -47 21 -86 30
-317 75 -570 309 -676 626 -35 106 -46 188 -42 320 4 133 6 147 41 255 121
370 439 623 824 653 114 8 200 1 312 -27 100 -26 267 -107 326 -158 l43 -38
-3 -75 -3 -75 -25 26 c-135 139 -348 229 -550 232 -128 2 -187 -6 -286 -38
-236 -77 -438 -273 -519 -504 -18 -52 -13 -77 17 -85 23 -5 58 18 58 39 0 16
83 176 106 204 124 151 246 232 423 280 104 29 286 24 381 -8 165 -58 287
-140 373 -253 25 -32 27 -43 27 -121 0 -83 -1 -87 -22 -88 -22 0 -111 2 -223
5 l-50 2 1 34 c0 19 3 55 6 80 30 216 31 230 18 245 -26 31 -54 15 -165 -90
-60 -58 -117 -110 -126 -115 -14 -8 -35 15 -118 124 -55 74 -108 136 -117 140
-12 5 -52 -7 -55 -17 0 -1 -3 -76 -5 -167 -5 -180 -7 -192 -26 -185 -7 2 -84
13 -171 25 -142 17 -161 18 -174 4 -23 -23 -9 -53 54 -120 128 -134 163 -173
163 -181 -1 -4 -59 -51 -129 -103 -136 -100 -159 -126 -137 -155 14 -19 36
-22 242 -27 l122 -3 -4 -30 c-6 -50 -16 -129 -19 -145 -2 -8 -6 -42 -9 -75 -4
-33 -9 -68 -12 -77 -3 -9 4 -26 16 -38 26 -26 43 -18 120 55 107 103 175 165
180 165 3 0 48 -58 100 -129 107 -146 130 -165 160 -135 16 16 20 38 24 164 2
80 5 157 5 171 l1 25 163 -22 c89 -13 168 -23 175 -24 23 0 14 -69 -15 -108
-186 -248 -539 -347 -840 -236 -267 98 -456 353 -480 647 -3 40 -10 78 -15 85
-12 14 -37 16 -57 3 -32 -20 -8 -216 41 -341 65 -165 196 -320 346 -410 62
-36 232 -106 232 -95 0 2 12 0 28 -6 44 -18 228 -20 312 -4 157 31 293 99 413
208 l42 37 3 -71 c3 -83 -2 -91 -88 -147 -60 -38 -191 -102 -211 -102 -19 0
-49 -31 -49 -50 0 -34 27 -45 78 -32 48 13 186 80 234 113 14 11 29 19 32 19
3 0 6 -121 6 -270 0 -251 1 -273 22 -327 36 -97 125 -171 228 -188 25 -5 125
-8 223 -7 97 0 177 -3 177 -7 0 -4 -105 -40 -232 -80 -128 -41 -264 -84 -303
-97 -38 -12 -151 -48 -250 -79 -99 -31 -200 -64 -225 -72 -25 -8 -85 -28 -135
-43 -49 -15 -189 -60 -310 -98 -121 -38 -230 -72 -242 -75 -33 -8 -69 26 -87
81 -8 26 -45 142 -81 257 -36 116 -70 221 -75 235 -9 26 -61 188 -250 785 -61
193 -115 361 -120 375 -5 14 -37 113 -70 220 -34 107 -98 308 -142 445 -44
138 -93 291 -108 340 -16 50 -44 140 -63 200 -234 736 -228 715 -216 738 16
30 21 33 129 68 113 36 128 48 112 84 -15 32 -35 32 -148 -4 -115 -36 -128
-44 -159 -89 -27 -39 -32 -93 -16 -147 17 -56 84 -265 321 -1010 111 -349 150
-470 214 -672 19 -60 98 -308 176 -553 78 -245 157 -493 176 -552 81 -257 105
-330 144 -453 23 -71 57 -178 76 -237 40 -127 51 -147 103 -176 51 -29 91 -28
197 7 49 16 170 54 269 86 99 31 241 76 315 100 172 55 410 131 925 293 l410
130 145 0 c80 0 139 -2 133 -5 -7 -3 -13 -9 -13 -15 0 -13 -36 -45 -70 -63
-22 -11 -344 -115 -1353 -436 -119 -38 -317 -101 -440 -140 -500 -159 -479
-154 -552 -136 -57 15 -126 87 -148 157 -10 30 -68 210 -128 400 -104 325
-154 483 -319 1000 -37 118 -116 366 -175 550 -59 184 -136 427 -171 540 -36
113 -72 223 -79 245 -8 22 -42 128 -75 235 -34 107 -68 213 -75 235 -8 22 -39
121 -70 220 -31 99 -65 206 -76 238 -28 85 -34 140 -18 194 15 56 77 123 129
140 19 6 78 24 130 41 52 17 154 49 225 72 72 23 220 70 330 105 110 35 456
145 770 245 667 213 743 237 770 242 29 6 86 -2 115 -16z m-655 -2017 c42 -55
83 -103 91 -106 23 -9 47 7 126 82 111 104 110 104 104 69 -2 -16 -7 -49 -11
-74 -4 -25 -9 -57 -11 -72 -10 -62 -7 -110 7 -119 8 -5 46 -9 84 -10 65 -1
152 -5 184 -8 7 0 -31 -34 -86 -75 -114 -85 -127 -98 -119 -123 3 -10 44 -58
91 -108 73 -79 102 -116 78 -102 -5 3 -30 7 -58 11 -27 3 -61 8 -75 10 -152
26 -157 22 -160 -124 -4 -151 -3 -150 -9 -150 -4 0 -41 48 -85 105 -57 76 -85
105 -100 105 -13 0 -59 -36 -116 -90 -52 -49 -96 -87 -98 -85 -2 2 4 63 14
135 18 129 18 133 -1 146 -11 8 -45 14 -79 15 -69 1 -189 6 -195 8 -2 0 44 38
102 83 82 62 107 86 107 104 0 22 -44 75 -152 185 -26 26 -38 46 -20 36 4 -3
32 -8 62 -12 30 -3 66 -8 80 -10 84 -13 118 -14 133 -2 16 11 24 86 26 240 1
20 3 37 6 37 2 0 39 -45 80 -101z m685 -466 l0 -188 -78 81 c-42 44 -90 94
-105 111 l-28 30 102 77 c57 42 104 76 106 76 2 0 3 -84 3 -187z"/>
<path d="M2981 5228 c-57 -7 -92 -27 -125 -72 -21 -27 -21 -38 -24 -731 l-3
-704 26 -17 c24 -16 27 -16 45 1 20 18 20 34 20 705 0 662 1 689 19 711 l19
24 1084 0 c625 1 1095 -3 1111 -8 15 -5 32 -17 37 -27 6 -10 10 -90 10 -177 0
-110 4 -163 12 -171 16 -16 55 -15 65 1 4 6 8 84 9 172 1 178 -7 218 -57 260
-16 13 -44 27 -63 30 -44 9 -2117 12 -2185 3z"/>
<path d="M4031 4631 c-14 -14 -17 -38 -16 -180 1 -169 4 -180 46 -181 36 0 42
26 42 191 0 106 -4 164 -11 171 -18 18 -42 18 -61 -1z"/>
<path d="M5217 4532 c-14 -15 -17 -40 -17 -123 0 -111 3 -123 36 -133 38 -12
49 17 50 136 1 100 0 110 -20 123 -26 19 -29 19 -49 -3z"/>
<path d="M3490 4526 c-17 -17 -11 -41 44 -176 61 -151 77 -174 109 -164 29 9
30 9 29 36 0 24 -93 256 -118 295 -14 22 -46 27 -64 9z"/>
<path d="M4569 4524 c-25 -30 -127 -293 -122 -313 5 -21 26 -30 54 -23 17 4
29 28 98 196 46 112 49 131 22 146 -27 14 -36 13 -52 -6z"/>
<path d="M3030 4209 c-6 -11 -10 -25 -8 -30 7 -22 233 -239 248 -239 22 0 40
20 40 45 0 13 -42 62 -113 133 -116 116 -146 132 -167 91z"/>
<path d="M4926 4123 c-59 -58 -111 -114 -116 -123 -11 -21 13 -60 37 -60 26 0
252 229 248 251 -13 67 -46 54 -169 -68z"/>
<path d="M3890 4115 c-79 -16 -178 -49 -245 -83 -47 -23 -156 -93 -182 -116
-192 -174 -301 -372 -329 -596 -42 -333 87 -650 349 -859 203 -161 460 -226
734 -187 210 31 443 170 579 347 66 86 141 232 159 309 2 8 11 46 20 85 15 64
24 283 12 302 -3 5 -8 29 -11 54 -20 147 -118 338 -241 468 -135 142 -285 224
-510 278 -48 11 -274 10 -335 -2z m130 -79 c0 -19 -383 -662 -416 -700 -29
-31 -50 -68 -61 -105 -17 -54 -221 -421 -234 -421 -13 0 -65 141 -85 231 -3
13 -7 69 -9 124 -10 229 76 452 237 618 146 149 351 247 536 256 17 0 32 -1
32 -3z m208 -11 c12 -3 32 -7 43 -10 126 -27 284 -118 390 -224 228 -229 304
-569 196 -880 -40 -114 -45 -115 -100 -20 -26 44 -47 84 -47 90 0 5 -4 9 -10
9 -5 0 -10 5 -10 11 0 6 -22 48 -50 95 -27 46 -53 96 -56 111 -11 47 -44 106
-79 143 -29 30 -405 668 -405 686 0 7 86 0 128 -11z m-136 -155 c14 -25 73
-128 132 -229 100 -173 105 -183 79 -177 -172 39 -315 42 -436 11 -38 -9 -70
-15 -71 -14 -3 4 210 376 247 433 10 15 20 26 21 24 2 -1 15 -23 28 -48z m133
-477 c33 -7 88 -27 122 -44 56 -27 67 -38 102 -97 56 -96 57 -115 6 -170 -132
-147 -478 -183 -693 -73 -58 30 -112 80 -129 119 -14 33 -13 37 29 110 25 43
56 83 73 94 45 27 134 59 185 65 25 3 47 7 50 10 10 9 198 -1 255 -14z m-605
-394 c17 -16 64 -48 98 -66 31 -16 162 -64 162 -58 0 2 15 -1 33 -6 36 -11
211 -13 272 -4 145 22 283 90 345 170 l25 32 72 -124 71 -123 -638 0 -639 0
72 124 71 124 21 -27 c11 -15 27 -34 35 -42z m1115 -316 c-124 -156 -282 -260
-470 -309 -119 -31 -319 -28 -433 5 -83 24 -188 74 -259 122 -53 36 -165 145
-201 197 l-23 32 712 0 711 0 -37 -47z"/>
<path d="M4017 3351 c-64 -14 -131 -97 -135 -168 -3 -37 20 -97 46 -126 27
-30 88 -57 127 -57 168 0 243 206 115 314 -41 34 -99 48 -153 37z m111 -117
c12 -14 22 -36 22 -50 0 -40 -28 -83 -58 -90 -15 -3 -31 -7 -37 -9 -16 -4 -64
24 -75 44 -24 46 -2 112 44 131 32 13 78 2 104 -26z"/>
<path d="M5212 4118 c-9 -9 -12 -338 -12 -1418 0 -1326 -1 -1408 -17 -1427
-10 -10 -34 -24 -53 -29 -25 -7 -36 -16 -38 -32 -12 -82 127 -57 176 31 16 30
17 129 17 1446 1 1504 3 1441 -44 1441 -9 0 -22 -5 -29 -12z"/>
<path d="M2846 3124 c-15 -14 -16 -109 -16 -925 0 -952 0 -936 44 -988 37 -42
75 -51 221 -51 141 0 175 8 175 39 0 38 -27 46 -159 47 -152 2 -143 1 -167 18
-18 14 -19 38 -24 936 -4 804 -7 922 -20 930 -22 14 -36 12 -54 -6z"/>
<path d="M3136 2334 c-113 -114 -128 -138 -104 -162 27 -27 55 -11 166 101
110 111 127 138 100 165 -25 25 -48 9 -162 -104z"/>
<path d="M4816 2431 c-24 -26 -20 -32 109 -162 112 -113 143 -130 165 -90 5
11 10 23 10 27 0 15 -235 244 -250 244 -9 0 -25 -9 -34 -19z"/>
<path d="M3607 2197 c-18 -15 -127 -277 -127 -306 0 -27 34 -45 59 -32 11 6
42 67 76 148 52 126 66 176 53 189 -12 11 -47 12 -61 1z"/>
<path d="M4456 2191 c-17 -18 -15 -25 30 -138 79 -199 91 -216 134 -193 29 15
25 35 -41 196 -66 159 -84 178 -123 135z"/>
<path d="M4028 2103 c-11 -14 -14 -51 -13 -177 1 -141 3 -160 19 -171 27 -20
66 0 67 34 5 148 0 303 -11 316 -17 20 -44 19 -62 -2z"/>
<path d="M3517 1242 c-22 -4 -33 -48 -17 -67 11 -13 101 -15 679 -15 366 0
671 4 677 8 19 13 23 40 9 59 -13 17 -43 18 -672 18 -362 0 -666 -1 -676 -3z"/>
<path d="M1090 4406 c-131 -40 -135 -42 -138 -71 -4 -30 19 -57 41 -50 117 36
245 79 255 87 17 15 15 42 -5 60 -16 15 -30 12 -153 -26z"/>
</g>
</svg>
